<svg xmlns="http://www.w3.org/2000/svg" direction="ltr" width="313.6209771929392" height="309.2280201881557" viewBox="618.2307046308349 142.97501549129913 313.6209771929392 309.2280201881557" stroke-linecap="round" stroke-linejoin="round" data-color-mode="light" class="tl-container tl-theme__force-sRGB tl-theme__light" style="background-color: transparent;"><defs/><g transform="matrix(1, 0, 0, 1, 669.9252, 189.4825)" opacity="0.25"><path fill="#f9f0e6" d="M20,0 L69.1122,0 Q89.1122,0 89.1122,20 L89.1122,75.5547 Q89.1122,95.5547 69.1122,95.5547 L20,95.5547 Q0,95.5547 0,75.5547 L0,20 Q0,0 20,0 "/><path d="M19.9947,0.4601 L67.671,1.5571 Q87.6657,2.0172 87.7292,22.0171 L87.8954,74.4381 Q87.9589,94.438 67.9741,95.2195 L18.1476,97.1678 Q-1.8372,97.9493 -1.1488,77.9611 L0.8272,20.5882 Q1.5157,0.6 21.5107,0.1535 L70.3854,-0.938 Q90.3804,-1.3845 90.6959,18.613 L91.611,76.6143 Q91.9265,96.6118 71.9294,96.2768 L17.0099,95.3567 Q-2.9873,95.0217 -2.229,75.0361 L-0.1397,19.967 Q0.6185,-0.0187 19.9947,0.4601 " stroke="#f1ac4b" stroke-width="10" fill="none"/></g><g transform="matrix(1, 0, 0, 1, 801.8709, 189.1879)" opacity="0.25"><path fill="#dbf0e0" d="M20,0 L75.245,0 Q95.245,0 95.245,20 L95.245,75.9816 Q95.245,95.9816 75.245,95.9816 L20,95.9816 Q0,95.9816 0,75.9816 L0,20 Q0,0 20,0 "/><path d="M19.996,0.4008 L72.2186,1.4475 Q92.2146,1.8483 93.3733,21.8147 L96.4656,75.0946 Q97.6243,95.061 77.6244,95.0237 L22.4284,94.9207 Q2.4285,94.8834 2.4638,74.8834 L2.566,17.0365 Q2.6013,-2.9635 22.6008,-2.8219 L74.1019,-2.4575 Q94.1014,-2.316 94.139,17.684 L94.2481,75.7143 Q94.2857,95.7142 74.29,95.3006 L16.9412,94.1141 Q-3.0545,93.7005 -2.08,73.7242 L0.4857,21.1284 Q1.4602,1.1521 19.996,0.4008 " stroke="#4cb05e" stroke-width="10" fill="none"/></g><g transform="matrix(1, 0, 0, 1, 666.4259, 323.7761)" opacity="0.25"><path fill="#dbf0e0" d="M20,0 L75.7669,0 Q95.7669,0 95.7669,20 L95.7669,73.0878 Q95.7669,93.0878 75.7669,93.0878 L20,93.0878 Q0,93.0878 0,73.0878 L0,20 Q0,0 20,0 "/><path d="M19.9993,-0.1675 L77.5657,-0.6495 Q97.565,-0.817 97.3985,19.1823 L96.9678,70.9294 Q96.8013,90.9288 76.8267,91.9379 L16.9075,94.9652 Q-3.067,95.9743 -3.0718,75.9743 L-3.0859,17.4945 Q-3.0906,-2.5055 16.9009,-1.9255 L74.7345,-0.2477 Q94.7261,0.3323 95.0033,20.3304 L95.7214,72.1435 Q95.9986,92.1416 76.0101,92.82 L21.7203,94.6627 Q1.7318,95.3411 2.0094,75.343 L2.7892,19.1675 Q3.0668,-0.8306 19.9993,-0.1675 " stroke="#4cb05e" stroke-width="10" fill="none"/></g><g transform="matrix(1, 0, 0, 1, 801.0623, 323.5296)" opacity="0.25"><path fill="#dbf0e0" d="M4.1878,0 L12.5633,0 Q16.751,0 16.751,20 L16.751,71.9854 Q16.751,91.9854 12.5633,91.9854 L4.1878,91.9854 Q0,91.9854 0,71.9854 L0,20 Q0,0 4.1878,0 "/><path d="M3.9436,-0.1611 L11.8307,-0.4834 Q15.7743,-0.6445 15.6389,19.355 L15.304,68.8364 Q15.1686,88.836 10.8151,90.1228 L2.1081,92.6964 Q-2.2455,93.9832 -1.2094,74.01 L1.7422,17.1059 Q2.7783,-2.8673 6.3406,-2.1578 L13.4654,-0.7387 Q17.0278,-0.0292 16.8744,19.9702 L16.4586,74.15 Q16.3051,94.1494 12.7703,93.0485 L5.7005,90.8467 Q2.1657,89.7458 2.0699,69.7461 L1.8267,18.9485 Q1.731,-1.0513 3.9436,-0.1611 " stroke="#4cb05e" stroke-width="10" fill="none"/></g><g transform="matrix(1, 0, 0, 1, 880.9963, 326.0609)" opacity="0.25"><path fill="#dbf0e0" d="M4.7138,0 L14.1415,0 Q18.8554,0 18.8554,20 L18.8554,68.6071 Q18.8554,88.6071 14.1415,88.6071 L4.7138,88.6071 Q0,88.6071 0,68.6071 L0,20 Q0,0 4.7138,0 "/><path d="M4.5972,0.2122 L13.7917,0.6366 Q18.3889,0.8488 18.106,20.8468 L17.3956,71.0535 Q17.1127,91.0515 12.8566,90.2363 L4.3442,88.6058 Q0.0881,87.7905 0.0194,67.7906 L-0.1376,22.0768 Q-0.2062,2.077 4.9915,0.7473 L15.387,-1.9121 Q20.5848,-3.2418 20.0082,16.7499 L18.5882,65.9883 Q18.0117,85.98 12.8535,86.6722 L2.5372,88.0567 Q-2.621,88.749 -1.882,68.7626 L-0.1743,22.5785 Q0.5647,2.5922 4.5972,0.2122 " stroke="#4cb05e" stroke-width="10" fill="none"/></g><g transform="matrix(1, 0, 0, 1, 841.7012, 324.3092)" opacity="0.25"><path fill="#dbf0e0" d="M4.3817,0 L13.145,0 Q17.5266,0 17.5266,7.8607 L17.5266,23.582 Q17.5266,31.4427 13.145,31.4427 L4.3817,31.4427 Q0,31.4427 0,23.582 L0,7.8607 Q0,0 4.3817,0 "/><path d="M5.0185,-0.5559 L15.0554,-1.6677 Q20.0739,-2.2236 19.2901,6.9063 L17.7224,25.1659 Q16.9385,34.2958 11.9002,33.2012 L1.8235,31.0121 Q-3.2148,29.9175 -1.6197,23.0889 L1.5706,9.4316 Q3.1657,2.603 6.0202,2.3209 L11.7291,1.7567 Q14.5836,1.4746 15.7259,8.9537 L18.0105,23.912 Q19.1528,31.3911 13.6708,30.8771 L2.7069,29.8493 Q-2.775,29.3353 -1.8814,21.5986 L-0.0943,6.1251 Q0.7993,-1.6116 5.0185,-0.5559 " stroke="#4cb05e" stroke-width="10" fill="none"/></g><g transform="matrix(1, 0, 0, 1, 840.2942, 388.3862)" opacity="0.25"><path fill="#dbf0e0" d="M5.0227,0 L15.0682,0 Q20.091,0 20.091,7.9542 L20.091,23.8627 Q20.091,31.8169 15.0682,31.8169 L5.0227,31.8169 Q0,31.8169 0,23.8627 L0,7.9542 Q0,0 5.0227,0 "/><path d="M5.1826,-0.0856 L15.5477,-0.2567 Q20.7303,-0.3422 19.7475,8.1534 L17.7818,25.1445 Q16.799,33.64 12.9996,33.2934 L5.4008,32.6001 Q1.6014,32.2535 1.4585,24.9567 L1.1727,10.3633 Q1.0298,3.0666 5.3286,1.8298 L13.9262,-0.6436 Q18.2251,-1.8803 18.336,6.0735 L18.558,21.9813 Q18.6689,29.9352 13.6193,30.6789 L3.5202,32.1663 Q-1.5294,32.9099 -1.534,23.8834 L-1.5433,5.8304 Q-1.5479,-3.1961 5.1826,-0.0856 " stroke="#4cb05e" stroke-width="10" fill="none"/></g><g transform="matrix(1, 0, 0, 1, 710.1356, 233.0284)" opacity="0.25"><path fill="#f9f0e6" d="M3.0103,0 L9.0309,0 Q12.0413,0 12.0413,2.8888 L12.0413,8.6663 Q12.0413,11.555 9.0309,11.555 L3.0103,11.555 Q0,11.555 0,8.6663 L0,2.8888 Q0,0 3.0103,0 "/><path d="M2.6314,0.4136 L7.8942,1.2408 Q10.5256,1.6543 11.4605,4.4169 L13.3302,9.942 Q14.265,12.7045 9.9365,11.6052 L1.2795,9.4065 Q-3.049,8.3071 -2.3728,5.8219 L-1.0203,0.8514 Q-0.344,-1.6338 2.8767,-1.751 L9.318,-1.9853 Q12.5387,-2.1025 12.5149,1.0584 L12.4672,7.3801 Q12.4434,10.541 9.3704,10.2849 L3.2243,9.7729 Q0.1513,9.5169 0.4744,6.4346 L1.1205,0.2702 Q1.4435,-2.8121 2.6314,0.4136 " stroke="#f1ac4b" stroke-width="10" fill="none"/></g><g transform="matrix(1, 0, 0, 1, 842.8133, 232.174)" opacity="0.25"><path fill="#dbf0e0" d="M3.0103,0 L9.0309,0 Q12.0413,0 12.0413,2.8888 L12.0413,8.6663 Q12.0413,11.555 9.0309,11.555 L3.0103,11.555 Q0,11.555 0,8.6663 L0,2.8888 Q0,0 3.0103,0 "/><path d="M3.6103,-0.3578 L10.8309,-1.0735 Q14.4411,-1.4314 13.376,1.5089 L11.2456,7.3895 Q10.1805,10.3298 7.1279,11.0318 L1.0229,12.4359 Q-2.0297,13.138 -1.7634,9.1335 L-1.2309,1.1246 Q-0.9647,-2.8799 2.8652,-1.8596 L10.525,0.181 Q14.3549,1.2013 14.3158,3.027 L14.2376,6.6782 Q14.1985,8.5039 11.3716,9.7628 L5.7179,12.2805 Q2.891,13.5394 1.6197,9.4339 L-0.9229,1.2229 Q-2.1942,-2.8827 3.6103,-0.3578 " stroke="#4cb05e" stroke-width="10" fill="none"/></g><g transform="matrix(1, 0, 0, 1, 707.3899, 365.3731)" opacity="0.25"><path fill="#dbf0e0" d="M3.0103,0 L9.0309,0 Q12.0413,0 12.0413,2.8888 L12.0413,8.6663 Q12.0413,11.555 9.0309,11.555 L3.0103,11.555 Q0,11.555 0,8.6663 L0,2.8888 Q0,0 3.0103,0 "/><path d="M3.4595,-0.2158 L10.3786,-0.6474 Q13.8381,-0.8632 13.8495,2.5424 L13.8722,9.3538 Q13.8836,12.7594 9.7143,11.7845 L1.3756,9.8346 Q-2.7937,8.8596 -1.8418,6.5824 L0.0619,2.0279 Q1.0138,-0.2494 3.1892,-0.576 L7.5399,-1.229 Q9.7153,-1.5556 9.5837,1.7554 L9.3205,8.3774 Q9.189,11.6884 6.631,11.9924 L1.515,12.6005 Q-1.043,12.9045 -0.1301,9.0213 L1.6957,1.255 Q2.6086,-2.6282 3.4595,-0.2158 " stroke="#4cb05e" stroke-width="10" fill="none"/></g><g transform="matrix(1, 0, 0, 1, 661.3862, 181.6031)" opacity="0.5"><path fill="#f9f0e6" d="M20,0 L69.1122,0 Q89.1122,0 89.1122,20 L89.1122,75.5547 Q89.1122,95.5547 69.1122,95.5547 L20,95.5547 Q0,95.5547 0,75.5547 L0,20 Q0,0 20,0 "/><path d="M19.9999,-0.0721 L67.0426,-0.2416 Q87.0425,-0.3136 87.165,19.686 L87.5102,76.0533 Q87.6327,96.0529 67.6352,95.7346 L17.0667,94.9296 Q-2.9307,94.6113 -1.7264,74.6476 L1.3718,23.2905 Q2.5761,3.3268 22.5412,2.1447 L71.6176,-0.761 Q91.5826,-1.943 90.6823,18.0367 L88.024,77.0278 Q87.1237,97.0075 67.124,96.8875 L17.0476,96.587 Q-2.9521,96.467 -2.7724,76.4678 L-2.2553,18.9221 Q-2.0757,-1.0771 19.9999,-0.0721 " stroke="#f1ac4b" stroke-width="10" fill="none"/></g><g transform="matrix(1, 0, 0, 1, 793.3319, 181.3085)" opacity="0.5"><path fill="#dbf0e0" d="M20,0 L75.245,0 Q95.245,0 95.245,20 L95.245,75.9816 Q95.245,95.9816 75.245,95.9816 L20,95.9816 Q0,95.9816 0,75.9816 L0,20 Q0,0 20,0 "/><path d="M19.9921,0.5637 L76.3811,2.1537 Q96.3731,2.7174 96.0894,22.7154 L95.3049,78.018 Q95.0212,98.016 75.0212,97.9875 L19.4219,97.9082 Q-0.578,97.8796 -1.1352,77.8874 L-2.7082,21.4392 Q-3.2653,1.447 16.7305,1.0402 L73.2367,-0.1095 Q93.2325,-0.5163 93.0201,19.4826 L92.4043,77.4699 Q92.1919,97.4688 72.2026,96.815 L21.9121,95.17 Q1.9228,94.5162 2.02,74.5164 L2.3004,16.8613 Q2.3976,-3.1385 19.9921,0.5637 " stroke="#4cb05e" stroke-width="10" fill="none"/></g><g transform="matrix(1, 0, 0, 1, 657.8869, 315.8967)" opacity="0.5"><path fill="#dbf0e0" d="M20,0 L75.7669,0 Q95.7669,0 95.7669,20 L95.7669,73.0878 Q95.7669,93.0878 75.7669,93.0878 L20,93.0878 Q0,93.0878 0,73.0878 L0,20 Q0,0 20,0 "/><path d="M19.9949,0.4497 L76.4656,1.7196 Q96.4605,2.1692 95.9496,22.1627 L94.5874,75.4599 Q94.0765,95.4534 74.0766,95.5165 L22.1937,95.6801 Q2.1938,95.7432 2.3161,75.7436 L2.6773,16.7263 Q2.7997,-3.2733 22.7927,-2.7455 L77.3053,-1.3064 Q97.2984,-0.7786 96.331,19.198 L93.5717,76.1823 Q92.6044,96.1589 72.6122,95.6 L21.4945,94.1709 Q1.5023,93.612 1.0463,73.6172 L-0.1767,19.9871 Q-0.6327,-0.0077 19.9949,0.4497 " stroke="#4cb05e" stroke-width="10" fill="none"/></g><g transform="matrix(1, 0, 0, 1, 792.5232, 315.6502)" opacity="0.5"><path fill="#dbf0e0" d="M4.1878,0 L12.5633,0 Q16.751,0 16.751,20 L16.751,71.9854 Q16.751,91.9854 12.5633,91.9854 L4.1878,91.9854 Q0,91.9854 0,71.9854 L0,20 Q0,0 4.1878,0 "/><path d="M3.9077,-0.4328 L11.7231,-1.2983 Q15.6308,-1.731 15.2607,18.2656 L14.2796,71.2853 Q13.9096,91.2819 10.3138,92.1509 L3.1222,93.8889 Q-0.4736,94.7579 -0.5065,74.7579 L-0.5979,19.2396 Q-0.6309,-0.7604 2.9679,-0.0454 L10.1656,1.3845 Q13.7644,2.0995 13.7231,22.0995 L13.6201,72.042 Q13.5788,92.042 10.2508,91.4289 L3.5947,90.2026 Q0.2667,89.5895 -0.3168,69.598 L-1.8099,18.4437 Q-2.3934,-1.5477 3.9077,-0.4328 " stroke="#4cb05e" stroke-width="10" fill="none"/></g><g transform="matrix(1, 0, 0, 1, 872.4572, 318.1815)" opacity="0.5"><path fill="#dbf0e0" d="M4.7138,0 L14.1415,0 Q18.8554,0 18.8554,20 L18.8554,68.6071 Q18.8554,88.6071 14.1415,88.6071 L4.7138,88.6071 Q0,88.6071 0,68.6071 L0,20 Q0,0 4.7138,0 "/><path d="M5.3804,0.5913 L16.1412,1.7739 Q21.5216,2.3652 21.1844,22.3623 L20.4392,66.5518 Q20.1019,86.5489 14.8396,87.2189 L4.315,88.5589 Q-0.9473,89.2289 -0.9758,69.2289 L-1.0474,19.1365 Q-1.076,-0.8635 3.8688,-0.5241 L13.7583,0.1548 Q18.7031,0.4943 18.2626,20.4894 L17.2289,67.4166 Q16.7884,87.4117 12.7005,87.4452 L4.5248,87.5121 Q0.4369,87.5456 0.9616,67.5525 L2.1296,23.0413 Q2.6542,3.0482 5.3804,0.5913 " stroke="#4cb05e" stroke-width="10" fill="none"/></g><g transform="matrix(1, 0, 0, 1, 833.1621, 316.4298)" opacity="0.5"><path fill="#dbf0e0" d="M4.3817,0 L13.145,0 Q17.5266,0 17.5266,7.8607 L17.5266,23.582 Q17.5266,31.4427 13.145,31.4427 L4.3817,31.4427 Q0,31.4427 0,23.582 L0,7.8607 Q0,0 4.3817,0 "/><path d="M4.3399,-0.1461 L13.0198,-0.4382 Q17.3597,-0.5843 16.8777,7.6074 L15.9137,23.9908 Q15.4317,32.1825 12.1134,31.611 L5.477,30.4679 Q2.1588,29.8964 1.6639,23.0043 L0.674,9.22 Q0.179,2.3279 4.7624,1.9268 L13.9292,1.1247 Q18.5126,0.7236 18.4582,8.9948 L18.3493,25.5373 Q18.2949,33.8086 13.0529,32.8644 L2.5689,30.976 Q-2.6731,30.0318 -2.2875,22.9704 L-1.5164,8.8474 Q-1.1309,1.7859 4.3399,-0.1461 " stroke="#4cb05e" stroke-width="10" fill="none"/></g><g transform="matrix(1, 0, 0, 1, 831.7552, 380.5068)" opacity="0.5"><path fill="#dbf0e0" d="M5.0227,0 L15.0682,0 Q20.091,0 20.091,7.9542 L20.091,23.8627 Q20.091,31.8169 15.0682,31.8169 L5.0227,31.8169 Q0,31.8169 0,23.8627 L0,7.9542 Q0,0 5.0227,0 "/><path d="M5.6276,-0.8293 L16.8827,-2.4878 Q22.5103,-3.3171 21.2563,5.4796 L18.7483,23.0728 Q17.4943,31.8694 13.8028,32.0084 L6.4199,32.2864 Q2.7284,32.4253 1.6629,24.1336 L-0.4679,7.5501 Q-1.5334,-0.7417 3.3303,-0.0335 L13.0577,1.3829 Q17.9214,2.0912 19.1385,8.9218 L21.5729,22.5831 Q22.7901,29.4138 17.8395,30.4697 L7.9382,32.5815 Q2.9876,33.6375 2.3044,25.9161 L0.938,10.4733 Q0.2548,2.7519 5.6276,-0.8293 " stroke="#4cb05e" stroke-width="10" fill="none"/></g><g transform="matrix(1, 0, 0, 1, 701.5965, 225.1491)" opacity="0.5"><path fill="#f9f0e6" d="M3.0103,0 L9.0309,0 Q12.0413,0 12.0413,2.8888 L12.0413,8.6663 Q12.0413,11.555 9.0309,11.555 L3.0103,11.555 Q0,11.555 0,8.6663 L0,2.8888 Q0,0 3.0103,0 "/><path d="M3.5867,0.6372 L10.76,1.9115 Q14.3467,2.5486 13.6794,4.7572 L12.3449,9.1743 Q11.6776,11.3829 8.0995,11.5033 L0.9432,11.7442 Q-2.6349,11.8646 -2.479,9.4653 L-2.1673,4.6668 Q-2.0114,2.2675 1.9193,2.2319 L9.7808,2.1608 Q13.7115,2.1252 13.2528,4.8823 L12.3354,10.3965 Q11.8766,13.1536 9.5818,12.6192 L4.9921,11.5504 Q2.6972,11.016 2.8531,8.853 L3.1649,4.527 Q3.3208,2.364 3.5867,0.6372 " stroke="#f1ac4b" stroke-width="10" fill="none"/></g><g transform="matrix(1, 0, 0, 1, 834.2743, 224.2946)" opacity="0.5"><path fill="#dbf0e0" d="M3.0103,0 L9.0309,0 Q12.0413,0 12.0413,2.8888 L12.0413,8.6663 Q12.0413,11.555 9.0309,11.555 L3.0103,11.555 Q0,11.555 0,8.6663 L0,2.8888 Q0,0 3.0103,0 "/><path d="M2.3438,0.3653 L7.0315,1.0959 Q9.3753,1.4612 9.4174,3.7015 L9.5016,8.1822 Q9.5437,10.4225 7.669,10.0197 L3.9195,9.2141 Q2.0448,8.8113 1.4571,6.9899 L0.2818,3.3471 Q-0.3059,1.5257 3.3986,0.8709 L10.8076,-0.4386 Q14.5121,-1.0934 14.1612,1.4552 L13.4594,6.5524 Q13.1085,9.101 9.7753,10.1148 L3.109,12.1423 Q-0.2242,13.156 -0.4985,10.3865 L-1.047,4.8473 Q-1.3213,2.0778 2.3438,0.3653 " stroke="#4cb05e" stroke-width="10" fill="none"/></g><g transform="matrix(1, 0, 0, 1, 698.8509, 357.4937)" opacity="0.5"><path fill="#dbf0e0" d="M3.0103,0 L9.0309,0 Q12.0413,0 12.0413,2.8888 L12.0413,8.6663 Q12.0413,11.555 9.0309,11.555 L3.0103,11.555 Q0,11.555 0,8.6663 L0,2.8888 Q0,0 3.0103,0 "/><path d="M2.3313,0.3802 L6.994,1.1407 Q9.3253,1.5209 9.5622,4.4829 L10.036,10.4068 Q10.2728,13.3687 8.462,13.6877 L4.8403,14.3255 Q3.0294,14.6445 3.0294,11.166 L3.0294,4.2091 Q3.0294,0.7307 4.9384,-0.0198 L8.7564,-1.5206 Q10.6655,-2.2711 11.8321,1.3261 L14.1654,8.5204 Q15.3321,12.1176 10.6977,12.8066 L1.4291,14.1846 Q-3.2053,14.8736 -2.5202,11.4352 L-1.1501,4.5585 Q-0.4651,1.1201 2.3313,0.3802 " stroke="#4cb05e" stroke-width="10" fill="none"/></g><g transform="matrix(1, 0, 0, 1, 653.73, 175.2696)" opacity="1"><path fill="#f9f0e6" d="M20,0 L69.1122,0 Q89.1122,0 89.1122,20 L89.1122,75.5547 Q89.1122,95.5547 69.1122,95.5547 L20,95.5547 Q0,95.5547 0,75.5547 L0,20 Q0,0 20,0 "/><path d="M19.9998,-0.0916 L70.5167,-0.3229 Q90.5165,-0.4145 89.863,19.5748 L88.0039,76.4449 Q87.3504,96.4342 67.3505,96.4971 L22.93,96.6368 Q2.9301,96.6997 2.7659,76.7003 L2.3202,22.4039 Q2.156,2.4045 22.127,1.3284 L70.4709,-1.2765 Q90.4419,-2.3526 89.7045,17.6338 L87.4855,77.7699 Q86.748,97.7563 66.7563,97.1785 L20.6444,95.8459 Q0.6527,95.2682 0.3796,75.27 L-0.3849,19.3021 Q-0.658,-0.696 19.9998,-0.0916 " stroke="#f1ac4b" stroke-width="10" fill="none"/></g><g transform="matrix(1, 0, 0, 1, 785.6757, 174.975)" opacity="1"><path fill="#dbf0e0" d="M20,0 L75.245,0 Q95.245,0 95.245,20 L95.245,75.9816 Q95.245,95.9816 75.245,95.9816 L20,95.9816 Q0,95.9816 0,75.9816 L0,20 Q0,0 20,0 "/><path d="M19.9967,0.3631 L77.5132,1.4075 Q97.5099,1.7706 97.41,21.7703 L97.1255,78.697 Q97.0256,98.6967 77.0259,98.5801 L19.8915,98.247 Q-0.1081,98.1304 -0.1816,78.1305 L-0.4046,17.4298 Q-0.4781,-2.5701 19.517,-2.1264 L72.7805,-0.9444 Q92.7756,-0.5007 93.4728,19.4872 L95.3907,74.4683 Q96.0879,94.4562 76.0882,94.5673 L20.1944,94.8779 Q0.1947,94.9891 0.2623,74.9892 L0.4549,18.0373 Q0.5225,-1.9626 19.9967,0.3631 " stroke="#4cb05e" stroke-width="10" fill="none"/></g><g transform="matrix(1, 0, 0, 1, 650.2307, 309.5632)" opacity="1"><path fill="#dbf0e0" d="M20,0 L75.7669,0 Q95.7669,0 95.7669,20 L95.7669,73.0878 Q95.7669,93.0878 75.7669,93.0878 L20,93.0878 Q0,93.0878 0,73.0878 L0,20 Q0,0 20,0 "/><path d="M19.9956,0.4182 L74.5697,1.5596 Q94.5653,1.9779 94.9634,21.9739 L95.9346,70.7643 Q96.3327,90.7603 76.3636,91.8716 L17.7535,95.1331 Q-2.2156,96.2443 -2.2531,76.2443 L-2.3587,19.8742 Q-2.3962,-0.1258 17.6033,-0.27 L76.0314,-0.6913 Q96.0309,-0.8355 95.4103,19.1548 L93.6842,74.7595 Q93.0637,94.7499 73.0804,93.9321 L20.9059,91.7968 Q0.9226,90.979 0.2073,70.9918 L-1.6037,20.3922 Q-2.3191,0.405 19.9956,0.4182 " stroke="#4cb05e" stroke-width="10" fill="none"/></g><g transform="matrix(1, 0, 0, 1, 784.867, 309.3167)" opacity="1"><path fill="#dbf0e0" d="M4.1878,0 L12.5633,0 Q16.751,0 16.751,20 L16.751,71.9854 Q16.751,91.9854 12.5633,91.9854 L4.1878,91.9854 Q0,91.9854 0,71.9854 L0,20 Q0,0 4.1878,0 "/><path d="M4.9711,0.8063 L14.9133,2.4189 Q19.8843,3.2252 19.487,23.2212 L18.4829,73.7582 Q18.0856,93.7543 13.0701,93.3804 L3.0391,92.6327 Q-1.9763,92.2588 -1.8793,72.259 L-1.622,19.253 Q-1.5249,-0.7468 2.2733,0.2686 L9.8697,2.2993 Q13.6679,3.3147 14.6245,23.2918 L17.0461,73.8656 Q18.0027,93.8427 13.6143,93.6508 L4.8374,93.2669 Q0.449,93.075 -0.2043,73.0856 L-1.865,22.2759 Q-2.5184,2.2866 4.9711,0.8063 " stroke="#4cb05e" stroke-width="10" fill="none"/></g><g transform="matrix(1, 0, 0, 1, 864.8011, 311.848)" opacity="1"><path fill="#dbf0e0" d="M4.7138,0 L14.1415,0 Q18.8554,0 18.8554,20 L18.8554,68.6071 Q18.8554,88.6071 14.1415,88.6071 L4.7138,88.6071 Q0,88.6071 0,68.6071 L0,20 Q0,0 4.7138,0 "/><path d="M5.4332,0.0286 L16.2997,0.0857 Q21.7329,0.1143 20.9503,20.099 L19.0657,68.2271 Q18.2831,88.2118 14.3782,89.1397 L6.5685,90.9955 Q2.6636,91.9235 1.5791,71.9529 L-1.2919,19.0839 Q-2.3764,-0.8867 2.1243,-0.2533 L11.1256,1.0135 Q15.6263,1.6469 17.0102,21.599 L20.359,69.8793 Q21.7429,89.8314 15.708,90.2367 L3.6382,91.0472 Q-2.3968,91.4524 -1.8016,71.4613 L-0.3092,21.3341 Q0.286,1.343 5.4332,0.0286 " stroke="#4cb05e" stroke-width="10" fill="none"/></g><g transform="matrix(1, 0, 0, 1, 825.506, 310.0963)" opacity="1"><path fill="#dbf0e0" d="M4.3817,0 L13.145,0 Q17.5266,0 17.5266,7.8607 L17.5266,23.582 Q17.5266,31.4427 13.145,31.4427 L4.3817,31.4427 Q0,31.4427 0,23.582 L0,7.8607 Q0,0 4.3817,0 "/><path d="M4.1086,0.1026 L12.3259,0.3077 Q16.4345,0.4102 16.7797,8.7808 L17.47,25.522 Q17.8152,33.8926 13.3056,33.2506 L4.2863,31.9668 Q-0.2233,31.3249 0.3966,22.7655 L1.6366,5.6467 Q2.2566,-2.9127 6.0951,-1.918 L13.7721,0.0714 Q17.6106,1.0661 18.0648,8.4537 L18.9732,23.229 Q19.4274,30.6166 14.835,29.9988 L5.6501,28.7631 Q1.0577,28.1453 1.0118,21.0605 L0.92,6.891 Q0.8741,-0.1938 4.1086,0.1026 " stroke="#4cb05e" stroke-width="10" fill="none"/></g><g transform="matrix(1, 0, 0, 1, 824.099, 374.1733)" opacity="1"><path fill="#dbf0e0" d="M5.0227,0 L15.0682,0 Q20.091,0 20.091,7.9542 L20.091,23.8627 Q20.091,31.8169 15.0682,31.8169 L5.0227,31.8169 Q0,31.8169 0,23.8627 L0,7.9542 Q0,0 5.0227,0 "/><path d="M4.9681,0.6939 L14.9044,2.0818 Q19.8726,2.7758 19.3896,9.5715 L18.4237,23.1629 Q17.9407,29.9586 12.881,31.2222 L2.7617,33.7494 Q-2.2979,35.0129 -2.167,26.4973 L-1.9052,9.4659 Q-1.7743,0.9502 3.002,1.083 L12.5544,1.3485 Q17.3306,1.4812 18.7522,8.6389 L21.5953,22.9543 Q23.0168,30.1119 17.5599,30.7244 L6.6461,31.9492 Q1.1892,32.5616 0.4527,24.8176 L-1.0202,9.3297 Q-1.7567,1.5857 4.9681,0.6939 " stroke="#4cb05e" stroke-width="10" fill="none"/></g><g transform="matrix(1, 0, 0, 1, 693.9404, 218.8156)" opacity="1"><path fill="#f9f0e6" d="M3.0103,0 L9.0309,0 Q12.0413,0 12.0413,2.8888 L12.0413,8.6663 Q12.0413,11.555 9.0309,11.555 L3.0103,11.555 Q0,11.555 0,8.6663 L0,2.8888 Q0,0 3.0103,0 "/><path d="M3.2177,0.2214 L9.6531,0.6643 Q12.8708,0.8858 12.6946,4.3613 L12.3424,11.3124 Q12.1662,14.788 8.6551,13.2449 L1.6327,10.1585 Q-1.8784,8.6154 -1.5612,5.9928 L-0.9267,0.7477 Q-0.6094,-1.8749 2.5396,-2.2138 L8.8376,-2.8916 Q11.9866,-3.2305 11.3841,0.5813 L10.179,8.2048 Q9.5765,12.0166 6.9403,11.5881 L1.6679,10.7312 Q-0.9682,10.3027 -1.1632,8.38 L-1.5531,4.5346 Q-1.7481,2.6119 3.2177,0.2214 " stroke="#f1ac4b" stroke-width="10" fill="none"/></g><g transform="matrix(1, 0, 0, 1, 826.6181, 217.9611)" opacity="1"><path fill="#dbf0e0" d="M3.0103,0 L9.0309,0 Q12.0413,0 12.0413,2.8888 L12.0413,8.6663 Q12.0413,11.555 9.0309,11.555 L3.0103,11.555 Q0,11.555 0,8.6663 L0,2.8888 Q0,0 3.0103,0 "/><path d="M2.7857,0.5981 L8.3571,1.7942 Q11.1429,2.3922 10.7159,3.9036 L9.862,6.9263 Q9.435,8.4377 7.6412,9.0726 L4.0534,10.3426 Q2.2596,10.9776 2.0057,8.2293 L1.4979,2.7326 Q1.244,-0.0158 3.1962,-0.0504 L7.1007,-0.1197 Q9.053,-0.1543 9.7808,3.0283 L11.2364,9.3934 Q11.9643,12.576 9.5307,12.6679 L4.6635,12.8515 Q2.2299,12.9434 0.9524,9.8239 L-1.6027,3.5849 Q-2.8802,0.4653 2.7857,0.5981 " stroke="#4cb05e" stroke-width="10" fill="none"/></g><g transform="matrix(1, 0, 0, 1, 691.1947, 351.1602)" opacity="1"><path fill="#dbf0e0" d="M3.0103,0 L9.0309,0 Q12.0413,0 12.0413,2.8888 L12.0413,8.6663 Q12.0413,11.555 9.0309,11.555 L3.0103,11.555 Q0,11.555 0,8.6663 L0,2.8888 Q0,0 3.0103,0 "/><path d="M3.332,0.1735 L9.9961,0.5206 Q13.3282,0.6942 13.3318,2.76 L13.3391,6.8916 Q13.3428,8.9574 9.929,9.302 L3.1014,9.9912 Q-0.3124,10.3358 0.0972,7.2141 L0.9164,0.9707 Q1.326,-2.151 4.6175,-1.6288 L11.2005,-0.5843 Q14.492,-0.0621 13.2083,2.8656 L10.6409,8.7209 Q9.3572,11.6485 6.576,11.0847 L1.0136,9.9572 Q-1.7676,9.3934 -0.8675,7.0312 L0.9327,2.3068 Q1.8327,-0.0554 3.332,0.1735 " stroke="#4cb05e" stroke-width="10" fill="none"/></g></svg>